<svg xmlns="http://www.w3.org/2000/svg" version="1.1" xmlns:xlink="http://www.w3.org/1999/xlink" xmlns:svgjs="http://svgjs.com/svgjs" width="1440" height="560" preserveAspectRatio="none" viewBox="0 0 1440 560"><g mask="url(&quot;#SvgjsMask1021&quot;)" fill="none"><rect width="1440" height="560" x="0" y="0" fill="#0e2a47"></rect><path d="M 0,142 C 57.6,120.6 172.8,14.4 288,35 C 403.2,55.6 460.8,238.6 576,245 C 691.2,251.4 748.8,65.8 864,67 C 979.2,68.2 1036.8,255.2 1152,251 C 1267.2,246.8 1382.4,87 1440,46L1440 560L0 560z" fill="rgba(29, 34, 42, 1)"></path><path d="M 0,359 C 22.2,390 66.6,509.6 111,514 C 155.4,518.4 177.6,388.4 222,381 C 266.4,373.6 288.6,495.2 333,477 C 377.4,458.8 399.6,293.2 444,290 C 488.4,286.8 510.6,452.4 555,461 C 599.4,469.6 621.6,318.2 666,333 C 710.4,347.8 732.6,523.6 777,535 C 821.4,546.4 843.6,412.2 888,390 C 932.4,367.8 954.6,431 999,424 C 1043.4,417 1065.6,328 1110,355 C 1154.4,382 1176.6,568.8 1221,559 C 1265.4,549.2 1288.2,320.4 1332,306 C 1375.8,291.6 1418.4,450.8 1440,487L1440 560L0 560z" fill="rgba(0, 173, 181, 1)"></path></g><defs><mask id="SvgjsMask1021"><rect width="1440" height="560" fill="#ffffff"></rect></mask></defs></svg>